<?xml version="1.0" encoding="UTF-8"?>
<svg xmlns="http://www.w3.org/2000/svg" width="244" height="236" viewBox="0 0 244 236">
<rect x="0" y="0" width="100%" height="100%" fill="#0e0e0e" />
<line x1="0" y1="116" x2="240" y2="116" stroke="#bfa76f" stroke-width="16" stroke-linecap="round" opacity="0.7" />
<line x1="120" y1="-12" x2="120" y2="244" stroke="#bfa76f" stroke-width="12" stroke-linecap="round" opacity="0.7" />
<line x1="20" y1="36" x2="220" y2="216" stroke="#bfa76f" stroke-width="8" stroke-linecap="round" opacity="0.7" />
<rect x="104" y="100" width="32" height="32" fill="#8994f5" fill-opacity="0.55" stroke="#222" stroke-width="1" />
<text x="118.0" y="114.0" fill="#ffffff" font-size="8" text-anchor="middle" dominant-baseline="middle">Town Hall</text>
<rect x="48" y="76" width="32" height="28" fill="#e0aab0" fill-opacity="0.55" stroke="#222" stroke-width="1" />
<text x="62.0" y="88.0" fill="#ffffff" font-size="8" text-anchor="middle" dominant-baseline="middle">Blacksmith</text>
<rect x="160" y="76" width="32" height="32" fill="#f692a3" fill-opacity="0.55" stroke="#222" stroke-width="1" />
<text x="174.0" y="90.0" fill="#ffffff" font-size="8" text-anchor="middle" dominant-baseline="middle">General Store</text>
<rect x="96" y="176" width="48" height="40" fill="#afd687" fill-opacity="0.55" stroke="#222" stroke-width="1" />
<text x="118.0" y="194.0" fill="#ffffff" font-size="8" text-anchor="middle" dominant-baseline="middle">Tavern</text>
<rect x="24" y="140" width="32" height="32" fill="#fadc8a" fill-opacity="0.55" stroke="#222" stroke-width="1" />
<text x="38.0" y="154.0" fill="#ffffff" font-size="8" text-anchor="middle" dominant-baseline="middle">Residence NW</text>
<rect x="184" y="140" width="32" height="32" fill="#fadc8a" fill-opacity="0.55" stroke="#222" stroke-width="1" />
<text x="198.0" y="154.0" fill="#ffffff" font-size="8" text-anchor="middle" dominant-baseline="middle">Residence NE</text>
<rect x="20" y="36" width="56" height="32" fill="#a5bfa3" fill-opacity="0.55" stroke="#222" stroke-width="1" />
<text x="46.0" y="50.0" fill="#ffffff" font-size="8" text-anchor="middle" dominant-baseline="middle">Stables</text>
<rect x="192" y="20" width="32" height="32" fill="#d280f4" fill-opacity="0.55" stroke="#222" stroke-width="1" />
<text x="206.0" y="34.0" fill="#ffffff" font-size="8" text-anchor="middle" dominant-baseline="middle">Guard Post</text>
<circle cx="120" cy="116" r="4" fill="#ff5555" stroke="#000" stroke-width="1" />
<text x="126" y="110" fill="#ffdddd" font-size="8">anchor 3520,1760</text>
</svg>